<svg width="24" height="24" viewBox="0 0 24 24"  fill="currentColor" xmlns="http://www.w3.org/2000/svg">
<path fill-rule="evenodd" clip-rule="evenodd" d="M21.205 14.7807H14.7578V21.2379C14.7578 22.7683 13.528 24 12 24C10.472 24 9.20497 22.7683 9.20497 21.2379V14.7807H2.79503C1.26708 14.7807 0 13.549 0 12.0187C0 10.451 1.26708 9.21929 2.79503 9.21929H9.20497V2.76205C9.20497 1.23173 10.472 0 12 0C13.528 0 14.7578 1.23173 14.7578 2.76205V9.21929H21.205C22.7329 9.21929 24 10.451 24 12.0187C24 13.549 22.7329 14.7807 21.205 14.7807Z" />
</svg>
