<svg width="24" height="24" viewBox="0 0 24 24"  fill="currentColor" xmlns="http://www.w3.org/2000/svg">
<path d="M23.0262 18.3521L16.6742 12L23.0262 5.64794C24.3246 4.34956 24.3246 2.27216 23.0262 0.973783C21.7278 -0.324594 19.6504 -0.324594 18.3521 0.973783L12 7.32584L5.64794 0.973783C4.34956 -0.324594 2.27216 -0.324594 0.973783 0.973783C-0.324594 2.27216 -0.324594 4.34956 0.973783 5.64794L7.32584 12L0.973783 18.3521C-0.324594 19.6504 -0.324594 21.7278 0.973783 23.0262C2.27216 24.3246 4.34956 24.3246 5.64794 23.0262L12 16.6742L18.3521 23.0262C19.6504 24.3246 21.7278 24.3246 23.0262 23.0262C24.3246 21.7278 24.3046 19.6504 23.0262 18.3521Z"/>
</svg>
