<svg width="24" height="24" viewBox="0 0 24 24" fill="currentColor" xmlns="http://www.w3.org/2000/svg">
<path d="M21.9887 20.98L20.9487 7.47995C20.8887 6.63995 20.1887 5.99995 19.3487 5.99995H17.5087V5.49995C17.5087 2.45995 15.0287 -4.57764e-05 12.0087 -4.57764e-05C8.96866 -4.57764e-05 6.50866 2.45995 6.50866 5.49995V5.99995H4.52866C3.68866 5.99995 2.98866 6.65995 2.92866 7.49995L2.00866 21.02C1.90866 22.64 3.18866 24 4.80866 24H19.1887C20.8287 24 22.1087 22.6 21.9887 20.98ZM8.50866 5.49995C8.50866 3.57995 10.0687 1.99995 12.0087 1.99995C13.9487 1.99995 15.5087 3.57995 15.5087 5.49995V5.99995H8.50866V5.49995ZM7.00866 13C7.00866 12.44 7.44866 12 8.00866 12C8.56866 12 9.00866 12.44 9.00866 13C9.00866 13.56 8.56866 14 8.00866 14C7.44866 14 7.00866 13.56 7.00866 13ZM16.5887 17.36C16.2287 19 14.3087 20.2 12.0087 20.2C9.70866 20.2 7.76866 19 7.40866 17.36C7.30866 16.92 7.58866 16.5 8.02866 16.42C8.46866 16.32 8.88866 16.6 8.96866 17.04C9.14866 17.8 10.3287 18.6 12.0087 18.6C13.6887 18.6 14.8687 17.8 15.0287 17.04C15.1287 16.6 15.5487 16.34 15.9687 16.42C16.4087 16.5 16.6687 16.94 16.5887 17.36ZM16.0087 14C15.4487 14 15.0087 13.56 15.0087 13C15.0087 12.44 15.4487 12 16.0087 12C16.5687 12 17.0087 12.44 17.0087 13C17.0087 13.56 16.5487 14 16.0087 14Z" />
</svg>
