<svg width="24" height="24" viewBox="0 0 24 24"  fill="currentColor" xmlns="http://www.w3.org/2000/svg">
<path fill-rule="evenodd" clip-rule="evenodd" d="M18.8643 16.8659L23.5604 21.5221C24.1199 22.1016 24.1199 23.0008 23.5604 23.5804C23.2806 23.8601 22.9009 24 22.5412 24C22.1815 24 21.8018 23.8601 21.5221 23.5804L16.786 18.8843C15.0275 20.1432 12.8893 20.9026 10.5512 20.9026C4.73605 20.9026 0 16.2065 0 10.4513C0 4.69609 4.73605 3.8147e-06 10.5512 3.8147e-06C16.3664 3.8147e-06 21.0824 4.69609 21.1024 10.4513C21.1024 12.8693 20.2631 15.0874 18.8643 16.8659ZM2.89759 10.4513C2.89759 14.6278 6.33472 18.025 10.5512 18.025C14.7677 18.025 18.2048 14.6278 18.2048 10.4513C18.2048 6.27477 14.7677 2.87761 10.5512 2.87761C6.33472 2.87761 2.89759 6.27477 2.89759 10.4513ZM4.71606 9.89176C4.71606 6.97419 7.09408 4.59617 10.0117 4.59617C10.4513 4.59617 10.811 4.95587 10.811 5.39551C10.811 5.83514 10.4513 6.19484 10.0117 6.19484C7.97335 6.19484 6.31473 7.85346 6.31473 9.89176C6.31473 10.3314 5.95503 10.6911 5.5154 10.6911C5.07577 10.6911 4.71606 10.3314 4.71606 9.89176Z"/>
</svg>

